HIERARCHY
ROOT Hips
{
	OFFSET 0.00000 0.00000 0.00000
	CHANNELS 6 Xposition Yposition Zposition Zrotation Yrotation Xrotation 
	JOINT LHipJoint
	{
		OFFSET 0 0 0
		CHANNELS 3 Zrotation Yrotation Xrotation
		JOINT LeftUpLeg
		{
			OFFSET 1.38615 -1.80049 0.80104
			CHANNELS 3 Zrotation Yrotation Xrotation
			JOINT LeftLeg
			{
				OFFSET 2.50172 -6.87341 0.00000
				CHANNELS 3 Zrotation Yrotation Xrotation
				JOINT LeftFoot
				{
					OFFSET 2.67523 -7.35014 0.00000
					CHANNELS 3 Zrotation Yrotation Xrotation
					JOINT LeftToeBase
					{
						OFFSET 0.17446 -0.47932 2.13155
						CHANNELS 3 Zrotation Yrotation Xrotation
						End Site
						{
							OFFSET 0.00000 -0.00000 1.10023
						}
					}
				}
			}
		}
	}
	JOINT RHipJoint
	{
		OFFSET 0 0 0
		CHANNELS 3 Zrotation Yrotation Xrotation
		JOINT RightUpLeg
		{
			OFFSET -1.18047 -1.80049 0.80104
			CHANNELS 3 Zrotation Yrotation Xrotation
			JOINT RightLeg
			{
				OFFSET -2.59789 -7.13765 0.00000
				CHANNELS 3 Zrotation Yrotation Xrotation
				JOINT RightFoot
				{
					OFFSET -2.62125 -7.20183 0.00000
					CHANNELS 3 Zrotation Yrotation Xrotation
					JOINT RightToeBase
					{
						OFFSET -0.31287 -0.85960 2.07814
						CHANNELS 3 Zrotation Yrotation Xrotation
						End Site
						{
							OFFSET -0.00000 -0.00000 1.11766
						}
					}
				}
			}
		}
	}
	JOINT LowerBack
	{
		OFFSET 0 0 0
		CHANNELS 3 Zrotation Yrotation Xrotation
		JOINT Spine
		{
			OFFSET -0.01587 2.16157 -0.12309
			CHANNELS 3 Zrotation Yrotation Xrotation
			JOINT Spine1
			{
				OFFSET 0.04727 2.16674 -0.03569
				CHANNELS 3 Zrotation Yrotation Xrotation
				JOINT Neck
				{
					OFFSET 0 0 0
					CHANNELS 3 Zrotation Yrotation Xrotation
					JOINT Neck1
					{
						OFFSET -0.08586 1.60335 0.32783
						CHANNELS 3 Zrotation Yrotation Xrotation
						JOINT Head
						{
							OFFSET 0.07583 1.65857 -0.31618
							CHANNELS 3 Zrotation Yrotation Xrotation
							End Site
							{
								OFFSET 0.03386 1.69434 -0.14584
							}
						}
					}
				}
				JOINT LeftShoulder
				{
					OFFSET 0 0 0
					CHANNELS 3 Zrotation Yrotation Xrotation
					JOINT LeftArm
					{
						OFFSET 3.17393 1.01901 -0.52897
						CHANNELS 3 Zrotation Yrotation Xrotation
						JOINT LeftForeArm
						{
							OFFSET 5.25287 -0.00000 -0.00000
							CHANNELS 3 Zrotation Yrotation Xrotation
							JOINT LeftHand
							{
								OFFSET 3.51014 -0.00000 0.00000
								CHANNELS 3 Zrotation Yrotation Xrotation
								JOINT LeftFingerBase
								{
									OFFSET 0 0 0
									CHANNELS 3 Zrotation Yrotation Xrotation
									JOINT LeftHandIndex1
									{
										OFFSET 0.70618 -0.00000 -0.00000
										CHANNELS 3 Zrotation Yrotation Xrotation
										End Site
										{
											OFFSET 0.56934 -0.00000 -0.00000
										}
									}
								}
								JOINT LThumb
								{
									OFFSET 0 0 0
									CHANNELS 3 Zrotation Yrotation Xrotation
									End Site
									{
										OFFSET 0.57803 -0.00000 0.57803
									}
								}
							}
						}
					}
				}
				JOINT RightShoulder
				{
					OFFSET 0 0 0
					CHANNELS 3 Zrotation Yrotation Xrotation
					JOINT RightArm
					{
						OFFSET -2.99471 1.26495 -0.61125
						CHANNELS 3 Zrotation Yrotation Xrotation
						JOINT RightForeArm
						{
							OFFSET -5.28721 -0.00000 -0.00000
							CHANNELS 3 Zrotation Yrotation Xrotation
							JOINT RightHand
							{
								OFFSET -3.50544 -0.00000 0.00000
								CHANNELS 3 Zrotation Yrotation Xrotation
								JOINT RightFingerBase
								{
									OFFSET 0 0 0
									CHANNELS 3 Zrotation Yrotation Xrotation
									JOINT RightHandIndex1
									{
										OFFSET -0.88500 -0.00000 -0.00000
										CHANNELS 3 Zrotation Yrotation Xrotation
										End Site
										{
											OFFSET -0.71351 -0.00000 -0.00000
										}
									}
								}
								JOINT RThumb
								{
									OFFSET 0 0 0
									CHANNELS 3 Zrotation Yrotation Xrotation
									End Site
									{
										OFFSET -0.72440 -0.00000 0.72440
									}
								}
							}
						}
					}
				}
			}
		}
	}
}
MOTION
Frames: 10
Frame Time: .0083333
15.4293 18.0845 16.6286 0 0 0 0 0 0 -21 0 0 0 0 0 0 0 0 0 0 0 0 0 0 21 0 0 0 0 0 0 0 0 0 0 0 0 0 0 0 0 0 0 0 0 0 0 -16 0 0 21 0 0 11 0 0 0 -8 0 0 0 0 0 0 0 0 0 0 0 0 0 0 0 0 0 0 0 0 8 0 0 0 0 0 0 0 0 0 0 0 0 0 0 0 0 0
15.4293 18.0845 16.6286 3.7509 -69.6113 3.1425 0.0000 0.0000 0.0000 -18.3319 6.5443 -19.9362 3.2684 11.1174 32.6768 1.0808 -1.5423 -19.1967 0.8907 -6.0155 -16.8295 0.0000 0.0000 0.0000 8.0385 1.7076 -27.5729 -6.1525 -14.5745 45.5908 -0.9070 -8.5215 -23.0038 -0.0072 0.5468 -1.5026 -6.1094 -3.4917 4.7462 2.5739 -4.9520 4.0388 6.2043 -2.7189 2.2895 -22.4644 -19.3368 6.1859 25.2960 -30.8048 8.7626 8.1309 -15.3661 9.4136 0.0000 -0.0000 0.0000 -70.2930 -2.1194 11.3158 19.9833 -30.6222 -5.5228 -0.0000 -0.0000 6.3781 4.5839 37.0134 2.7633 -7.1250 0.0000 -0.0000 -36.4048 63.3912 -17.3904 0.0000 -0.0000 0.0000 42.0060 4.8069 7.3382 -17.1391 27.0408 -4.1504 0.0000 0.0000 29.4103 -23.8933 10.6472 -4.6792 7.1250 -0.0000 -0.0000 2.2360 -18.3658 1.4187
15.4086 18.0859 16.5803 4.4388 -69.3338 2.4080 0.0000 0.0000 0.0000 -18.3460 6.4931 -19.8552 3.2554 11.0975 32.6094 1.0638 -2.1909 -18.8850 0.6321 -5.0869 -14.1565 0.0000 0.0000 0.0000 7.2278 1.8415 -27.0351 -6.0368 -14.4639 45.1291 -0.8571 -8.6701 -22.6877 -0.0467 1.3948 -3.8359 -6.2398 -3.6102 4.8377 2.6200 -5.1228 4.1436 6.3287 -2.8178 2.3924 -22.8610 -19.3099 6.3890 25.5731 -30.7958 8.4606 8.2859 -15.3905 9.3987 0.0000 0.0000 0.0000 -69.8504 -2.1683 9.9731 19.8580 -30.4709 -5.4592 -0.0000 -0.0000 6.9241 4.7395 36.8996 2.8498 -7.1250 0.0000 -0.0000 -36.1072 63.3422 -17.1878 0.0000 0.0000 0.0000 40.6466 5.0151 6.9912 -16.3019 25.9283 -3.7770 0.0000 0.0000 29.6090 -23.6918 9.8951 -4.3122 7.1250 -0.0000 -0.0000 2.3474 -19.1994 1.4461
15.3910 18.0831 16.5303 4.9410 -69.4778 2.0731 0.0000 0.0000 0.0000 -18.3823 6.7418 -20.2476 3.2917 11.1529 32.7974 1.0846 -2.4880 -19.0115 0.5234 -4.6366 -12.8749 0.0000 0.0000 0.0000 6.3965 2.5358 -26.6192 -5.8790 -14.3101 44.4942 -0.8056 -8.6741 -22.2304 -0.0300 1.1172 -3.0713 -6.1677 -3.4951 4.7919 2.5469 -4.9622 4.1432 6.2078 -2.7325 2.3779 -22.7155 -19.4510 6.5356 25.4180 -30.9133 8.2612 8.2027 -15.4571 9.2785 -0.0000 -0.0000 0.0000 -69.1650 -2.2486 9.1828 19.7544 -30.3453 -5.4067 -0.0000 -0.0000 7.1167 5.3742 36.9157 3.2340 -7.1250 0.0000 -0.0000 -35.4891 63.5238 -17.0045 -0.0000 -0.0000 0.0000 39.5696 4.7442 6.6027 -15.4864 24.8193 -3.4275 0.0000 0.0000 29.9878 -23.1096 9.1737 -3.8920 7.1250 -0.0000 -0.0000 2.7379 -20.0268 1.6366
15.3725 18.0799 16.4807 4.3945 -69.4415 2.7275 0.0000 0.0000 0.0000 -18.0168 6.9359 -20.6049 3.3180 11.1929 32.9331 1.0912 -2.5593 -19.0565 0.6661 -5.2194 -14.5353 0.0000 0.0000 0.0000 5.9603 3.1833 -26.1643 -5.7263 -14.1578 43.8732 -0.7915 -8.5053 -21.9622 -0.0004 -0.1289 0.3542 -5.8048 -3.4270 4.8177 2.7038 -4.8646 4.1283 6.1706 -2.6748 2.3134 -22.9404 -19.6478 6.6495 25.3375 -31.1604 8.1365 8.1404 -15.5833 9.3008 0.0000 0.0000 0.0000 -68.6956 -2.2615 8.7415 19.7606 -30.3528 -5.4098 -0.0000 -0.0000 6.9109 5.7353 36.9773 3.4572 -7.1250 0.0000 -0.0000 -35.2012 63.6696 -16.9681 0.0000 0.0000 0.0000 38.3924 4.1579 6.4328 -14.8753 23.9722 -3.1751 0.0000 0.0000 30.1629 -22.1192 8.9892 -3.6338 7.1250 -0.0000 -0.0000 3.4435 -20.2980 2.0388
15.3559 18.0716 16.4297 4.0250 -69.0509 3.1130 0.0000 0.0000 0.0000 -17.6701 6.9152 -20.8045 3.3465 11.2359 33.0795 1.0683 -2.6325 -18.8335 0.9056 -6.0643 -16.9710 0.0000 0.0000 0.0000 5.5306 3.3116 -25.6847 -5.5798 -14.0084 43.2712 -0.7465 -8.4460 -21.4960 -0.0206 -0.9257 2.5445 -5.3889 -3.3861 4.9091 2.8111 -4.8057 4.2288 6.0513 -2.6413 2.3300 -23.2549 -19.9166 6.7335 25.7255 -31.5856 7.8465 8.1819 -15.7917 9.4346 -0.0000 -0.0000 0.0000 -68.2065 -2.6778 8.0051 19.6449 -30.2122 -5.3515 -0.0000 -0.0000 7.2638 5.6747 36.9990 3.4222 -7.1250 0.0000 -0.0000 -35.2897 63.6707 -17.0170 -0.0000 -0.0000 0.0000 37.4346 3.3591 6.0929 -14.4087 23.3159 -2.9880 0.0000 0.0000 30.1135 -21.6725 9.3720 -3.7026 7.1250 -0.0000 -0.0000 3.7721 -19.9199 2.2661
15.3379 18.0723 16.3787 4.5107 -68.7183 2.5190 0.0000 0.0000 0.0000 -17.6359 6.7669 -20.7276 3.3781 11.2833 33.2413 1.0531 -2.7283 -18.6754 0.9680 -6.2642 -17.5528 0.0000 0.0000 0.0000 4.8230 3.1679 -25.1234 -5.4407 -13.8635 42.6934 -0.6768 -8.6543 -21.0103 -0.0535 -1.4932 4.1071 -5.2038 -3.4205 5.1948 2.7465 -4.8587 4.2893 5.8977 -2.6607 2.2184 -23.3656 -20.0070 6.9001 25.9734 -31.7276 7.5528 8.2498 -15.8776 9.4162 0.0000 0.0000 0.0000 -67.4960 -2.7253 7.2698 19.5522 -30.0990 -5.3049 -0.0000 -0.0000 7.4231 5.8723 37.2352 3.5612 -7.1250 0.0000 -0.0000 -35.3870 63.9127 -17.2683 0.0000 0.0000 0.0000 36.5681 2.6123 6.3882 -13.9858 22.7144 -2.8226 0.0000 0.0000 30.1285 -21.7211 9.8872 -3.9132 7.1250 -0.0000 -0.0000 3.7492 -19.3656 2.2988
15.3207 18.0740 16.3233 5.1646 -68.5581 1.7550 0.0000 0.0000 0.0000 -17.6609 6.6781 -20.6366 3.4093 11.3299 33.4008 1.0511 -2.8838 -18.6272 0.8548 -5.8962 -16.4835 0.0000 0.0000 0.0000 4.0739 3.3141 -24.5207 -5.3028 -13.7169 42.1150 -0.5904 -9.1489 -20.6057 -0.0737 -1.7516 4.8198 -5.1718 -3.5122 5.5321 2.6566 -4.9943 4.3171 5.8107 -2.7230 2.0673 -23.2629 -19.8929 7.2301 26.0613 -31.4993 7.0757 8.3733 -15.8114 9.1404 0.0000 0.0000 0.0000 -66.7370 -2.3749 6.6576 19.5835 -30.1373 -5.3207 -0.0000 -0.0000 7.2701 6.0489 37.4280 3.6849 -7.1250 0.0000 -0.0000 -35.4539 64.1144 -17.4701 0.0000 0.0000 0.0000 35.6858 2.3571 6.7105 -13.4104 21.8855 -2.6043 0.0000 0.0000 30.8516 -21.0132 9.8118 -3.7453 7.1250 -0.0000 -0.0000 4.2518 -19.4992 2.5958
15.3030 18.0641 16.2562 5.2386 -68.4902 1.6711 0.0000 0.0000 0.0000 -17.4381 6.8802 -20.8401 3.4382 11.3727 33.5473 1.0214 -2.9271 -18.3449 1.0432 -6.4954 -18.2288 0.0000 0.0000 0.0000 3.5780 3.9505 -23.9629 -5.1560 -13.5573 41.4922 -0.4671 -10.0153 -20.1879 -0.0756 -1.7736 4.8805 -4.9785 -3.5206 5.6085 2.5650 -5.0030 4.4619 5.6058 -2.7280 2.1499 -22.6874 -19.9627 7.1988 25.7883 -31.4162 6.8475 8.2495 -15.7668 8.8911 0.0000 -0.0000 0.0000 -65.9582 -2.3929 5.7581 19.5599 -30.1085 -5.3088 -0.0000 -0.0000 7.5400 5.6583 37.4697 3.4493 -7.1250 0.0000 -0.0000 -35.9029 64.0414 -17.6591 0.0000 -0.0000 0.0000 35.1078 2.2094 6.2266 -12.7941 20.9848 -2.3791 0.0000 0.0000 32.2469 -19.6776 9.2168 -3.2783 7.1250 -0.0000 -0.0000 5.1987 -20.2215 3.0940
15.2810 18.0468 16.1923 5.3982 -68.2385 1.5346 0.0000 0.0000 0.0000 -17.2235 6.8919 -20.9650 3.4632 11.4096 33.6741 1.0019 -3.3784 -18.0867 1.0428 -6.4944 -18.2260 0.0000 0.0000 0.0000 2.9851 4.2869 -23.4540 -5.0048 -13.3892 40.8435 -0.3808 -10.6574 -19.9510 -0.1260 -2.2880 6.3024 -4.7242 -3.5719 5.6054 2.4872 -5.0624 4.5786 5.3774 -2.7558 2.2495 -22.4060 -20.1382 7.1017 25.4157 -31.5549 6.9330 8.0533 -15.8148 8.8442 0.0000 -0.0000 0.0000 -65.1873 -2.4684 4.8964 19.4810 -30.0119 -5.2693 -0.0000 -0.0000 7.7181 5.1845 37.3696 3.1522 -7.1250 0.0000 -0.0000 -36.2523 63.8339 -17.6797 0.0000 -0.0000 0.0000 34.5932 1.5579 6.0687 -12.4868 20.5306 -2.2701 0.0000 0.0000 33.2163 -18.8099 8.8036 -2.9842 7.1250 -0.0000 -0.0000 5.8211 -20.7095 3.4038
